# xmcd CD database file
#
# Track frame offsets:
#	150
#	14669
#	26548
#	38237
#	51621
#	64964
#	76285
#	90554
#	101056
#	112392
#	124829
#	139041
#	148179
#	161610
#	175949
#	187684
#	198729
#	214483
#	236269
#	258057
#	277150
#
# Disc length: 3981 seconds
#
# Revision: 4
# Processed by: cddbd v1.5.2PL0 Copyright (c) Steve Scherf et al.
# Submitted via: CDex 1.70beta2
#
DISCID=400f8b15
DTITLE=Sidney Bechet - Blues In The Air
DYEAR=1941
DGENRE=Jazz
TTITLE0=I Ain't Gonna Give Nobody None O'This Jelly-Roll (Williams - Williams)
TTITLE1=I'm Coming, Virginia (Cook - Heywood)
TTITLE2=Limehouse Blues (Braham)
TTITLE3=Georgia Cabin (Bechet - Karoley)
TTITLE4=Texas Moaner (Barnes - Williams)
TTITLE5=Strange Fruit (Allen)
TTITLE6=You're The Limit (Smith)
TTITLE7=Rip Up The Joint (Palmer - Silver)
TTITLE8=Suey (Bechet - Reid)
TTITLE9=Blues In The Air (Bechet)
TTITLE10=The Mooche (Ellington - Mills)
TTITLE11=Laughin' In Rhythm (Gaylor)
TTITLE12=12th Street Rag (Summer - Bowman)
TTITLE13=Mood Indigo (Ellington - Mills - Bigard)
TTITLE14=Rose Room (Williams - Hickman)
TTITLE15=Oh! Lady Be Good (I and G Gershwin)
TTITLE16=What Is This Thing Called Love? (Porter)
TTITLE17=After You've Gone (Creamer - Layton)
TTITLE18=V-Disc Blues (Bugle Call Rag - Ole Miss) (Pettis - Meyers - Schoebel - Handy)
TTITLE19=Bechet Parades The Blues (St Louis Blues) (Handy)
TTITLE20=St Louis Blues (Handy)
EXTD=YEAR: 1941
EXTT0=
EXTT1=
EXTT2=
EXTT3=
EXTT4=
EXTT5=
EXTT6=
EXTT7=
EXTT8=
EXTT9=
EXTT10=
EXTT11=
EXTT12=
EXTT13=
EXTT14=
EXTT15=
EXTT16=
EXTT17=
EXTT18=
EXTT19=
EXTT20=
PLAYORDER=
